HIERARCHY
ROOT ui
{
	 OFFSET 0 0 0
	 CHANNELS 3 XPosition YPosition Z Position
	 EndSite
	 {
	 OFFSET 0 -1 0
	 }
}
ROOT li
{
	 OFFSET 0 0 0
	 CHANNELS 3 XPosition YPosition Z Position
	 EndSite
	 {
	 OFFSET 0 -1 0
	 }
}
ROOT ul
{
	 OFFSET 0 0 0
	 CHANNELS 3 XPosition YPosition Z Position
	 EndSite
	 {
	 OFFSET 0 -1 0
	 }
}
ROOT ll
{
	 OFFSET 0 0 0
	 CHANNELS 3 XPosition YPosition Z Position
	 EndSite
	 {
	 OFFSET 0 -1 0
	 }
}
ROOT tt
{
	 OFFSET 0 0 0
	 CHANNELS 3 XPosition YPosition Z Position
	 EndSite
	 {
	 OFFSET 0 -1 0
	 }
}
ROOT tb
{
	 OFFSET 0 0 0
	 CHANNELS 3 XPosition YPosition Z Position
	 EndSite
	 {
	 OFFSET 0 -1 0
	 }
}
ROOT td
{
	 OFFSET 0 0 0
	 CHANNELS 3 XPosition YPosition Z Position
	 EndSite
	 {
	 OFFSET 0 -1 0
	 }
}
ROOT v
{
	 OFFSET 0 0 0
	 CHANNELS 3 XPosition YPosition Z Position
	 EndSite
	 {
	 OFFSET 0 -1 0
	 }
}
ROOT bn
{
	 OFFSET 0 0 0
	 CHANNELS 3 XPosition YPosition Z Position
	 EndSite
	 {
	 OFFSET 0 -1 0
	 }
}
MOTION
Frames: 24
Frame Time: 0.002
0.011565707206726073	-4.6441200375556946E-4	0		0.5064478454589844	-2.40612060546875	0		-1.034015625	0.26716921997070314	0		-0.798564453125	-2.510115234375	0		2.0069869384765626	-0.6158539428710937	0		3.337743896484375	-0.10507904052734375	0		4.5271416015625	0.475999755859375	0		5.964283203125	0.48477438354492186	0		-0.20705250549316406	5.9097978515625	0		
-0.045420021057128904	-0.003437690019607544	0		0.479576904296875	-2.40335693359375	0		-1.03398291015625	0.26664617919921874	0		-0.71945556640625	-2.510357421875	0		1.9771624755859376	-0.603025146484375	0		3.33373095703125	-0.11145430755615235	0		4.51416943359375	0.47573696899414064	0		5.96022802734375	0.4754658203125	0		-0.24022573852539061	5.9025986328125	0		
0.011553638458251953	-0.0014093489646911622	0		0.48361944580078126	-2.399830810546875	0		-1.0190140380859376	0.2690352783203125	0		-0.7822978515625	-2.494247314453125	0		1.9731805419921875	-0.5973900756835937	0		3.354525634765625	-0.1290146179199219	0		4.50704296875	0.4684608459472656	0		5.97323779296875	0.48304061889648436	0		-0.2384370880126953	5.9001259765625	0		
-0.0385368537902832	0.002646224021911621	0		0.48069036865234377	-2.3841943359375	0		-1.0151128540039063	0.2725746765136719	0		-0.7822066650390626	-2.476666748046875	0		1.970165283203125	-0.586719970703125	0		3.333555419921875	-0.11214940643310548	0		4.5099033203125	0.46813345336914064	0		5.97309765625	0.48277352905273435	0		-0.24068020629882814	5.90173779296875	0		
0.014271144866943359	0.0018087899684906005	0		0.48055032348632815	-2.3845380859375	0		-1.0153082275390626	0.27219970703125	0		-0.7783085327148438	-2.4730732421875	0		1.9899779052734374	-0.58821484375	0		3.293151123046875	-0.13606829833984374	0		4.495640625	0.46100152587890625	0		5.97289794921875	0.48254425048828126	0		-0.20693972778320313	5.9070693359375	0		
0.0060498170852661135	0.0025746519565582274	0		0.48746524047851564	-2.373900146484375	0		-1.015544189453125	0.2718730773925781	0		-0.79430908203125	-2.453250732421875	0		1.966732177734375	-0.5912744140625	0		3.3218671875	-0.14257536315917968	0		4.490201171875	0.4388273620605469	0		5.972658203125	0.4823521728515625	0		-0.22337445068359374	5.89690380859375	0		
0.010752506256103515	-0.0027318360805511474	0		0.4692016906738281	-2.3799892578125	0		-1.0107645874023437	0.2755481872558594	0		-0.7904814453125	-2.449562744140625	0		1.98648095703125	-0.5926826171875	0		3.29948291015625	-0.1575780029296875	0		4.48287841796875	0.4317088928222656	0		5.97747021484375	0.49015036010742186	0		-0.24268397521972657	5.901810546875	0		
0.010498170852661132	-0.002948638916015625	0		0.48195758056640625	-2.38331640625	0		-1.0001053466796874	0.26621585083007815	0		-0.7716884765625	-2.44896435546875	0		1.9692821044921875	-0.587714111328125	0		3.31137548828125	-0.14185169982910156	0		4.49461669921875	0.4314547424316406	0		5.973271484375	0.4970646667480469	0		-0.243032470703125	5.90158984375	0		
0.008329465866088867	0.004895729064941406	0		0.4399600830078125	-2.360104248046875	0		-0.9862423706054687	0.27790093994140624	0		-0.7737499389648438	-2.433131591796875	0		1.964103759765625	-0.5818146362304687	0		3.283875244140625	-0.17073268127441407	0		4.482234375	0.41645440673828127	0		5.9771044921875	0.5059397277832032	0		-0.20930491638183593	5.90710498046875	0		
0.013078517913818359	7.197980284690857E-4	0		0.46775604248046876	-2.362482666015625	0		-0.991496337890625	0.27380279541015623	0		-0.8088872680664062	-2.42795654296875	0		1.963896484375	-0.5819208984375	0		3.323670166015625	-0.17018365478515626	0		4.47781591796875	0.39441680908203125	0		5.98588330078125	0.5058026428222656	0		-0.20959384155273436	5.9069716796875	0		
0.009865432739257813	-0.0033425529003143313	0		0.46760452270507813	-2.362567138671875	0		-0.9916764526367188	0.27370233154296875	0		-0.7779581909179687	-2.4193349609375	0		1.979679931640625	-0.5871334838867187	0		3.270451904296875	-0.1747590789794922	0		4.47270703125	0.40242041015625	0		5.98062890625	0.49782327270507815	0		-0.22493360900878906	5.89601513671875	0		
0.004779253005981445	0.0016526980400085448	0		0.4674940490722656	-2.36261279296875	0		-0.9818107299804687	0.2735537414550781	0		-0.8229581909179687	-2.406986572265625	0		1.9605634765625	-0.585994384765625	0		3.278213623046875	-0.186851318359375	0		4.4653740234375	0.38047442626953126	0		5.97248388671875	0.4968988342285156	0		-0.24308067321777344	5.90012548828125	0		
0.009654096603393555	-0.0034029169082641602	0		0.4414758911132812	-2.357386474609375	0		-0.9709019165039062	0.2724373779296875	0		-0.7571058349609375	-2.4165966796875	0		1.9635233154296876	-0.5820194091796875	0		3.291963134765625	-0.20596566772460936	0		4.4582197265625	0.37255661010742186	0		5.990400390625	0.49676559448242186	0		-0.24121786499023437	5.89809521484375	0		
0.01669219970703125	0.0035609068870544433	0		0.47550469970703124	-2.352663818359375	0		-1.0388529052734374	0.28107208251953125	0		-0.8309013671875	-2.39190771484375	0		1.9665369873046874	-0.5780112915039063	0		3.2840478515625	-0.1938533477783203	0		4.4612021484375	0.37357522583007813	0		5.97251806640625	0.51297900390625	0		-0.24225804138183593	5.89913037109375	0		
0.007733441829681396	0.004705849170684814	0		0.4556580810546875	-2.339419677734375	0		-0.970896240234375	0.27252285766601564	0		-0.7668413696289063	-2.389421142578125	0		1.9716416015625	-0.5699895629882813	0		3.24682958984375	-0.22145016479492188	0		4.45197314453125	0.3447283325195313	0		5.9944765625	0.5048546752929688	0		-0.24223539733886718	5.89919384765625	0		
0.01278393268585205	7.604280114173889E-4	0		0.46062506103515627	-2.352365234375	0		-1.04780615234375	0.2733162841796875	0		-0.8386913452148438	-2.381673095703125	0		1.9437557373046874	-0.566640380859375	0		3.270924072265625	-0.22057025146484374	0		4.45206005859375	0.344822998046875	0		5.98964501953125	0.5139923095703125	0		-0.22318817138671876	5.89412255859375	0		
0.009884940147399903	-0.003079629898071289	0		0.4607532958984375	-2.352234130859375	0		-0.97067138671875	0.2727597045898438	0		-0.76259326171875	-2.385221435546875	0		1.9607188720703126	-0.5856669921875	0		3.281924560546875	-0.23554788208007812	0		4.452072265625	0.33094000244140626	0		5.98978369140625	0.5141030883789063	0		-0.2560912780761719	5.8875537109375	0		
0.005110033988952637	0.002129040002822876	0		0.42806411743164063	-2.3357763671875	0		-1.0315323486328125	0.2684793701171875	0		-0.8293263549804688	-2.37344970703125	0		1.9639310302734374	-0.5815424194335937	0		3.28318408203125	-0.22641366577148436	0		4.457181640625	0.3230316162109375	0		5.99488525390625	0.5051852416992187	0		-0.23978555297851561	5.89757470703125	0		
0.013313920021057128	0.0012495440244674682	0		0.4692016906738281	-2.341956787109375	0		-1.0222451171875	0.27659930419921874	0		-0.8230704345703125	-2.36630419921875	0		1.970211181640625	-0.5734208984375	0		3.257216064453125	-0.246013671875	0		4.4533349609375	0.3162227172851563	0		5.99018408203125	0.5143716430664063	0		-0.23952218627929686	5.89776953125	0		
0.010512579917907714	-0.0025043020248413086	0		0.4304854736328125	-2.33339111328125	0		-1.0170529174804688	0.2717841796875	0		-0.8208427124023437	-2.3640947265625	0		1.9763853759765626	-0.5792765502929688	0		3.318499755859375	-0.2403798828125	0		4.4534375	0.3013955078125	0		5.99042431640625	0.5145276489257813	0		-0.22028042602539064	5.89181982421875	0		
0.013790134429931641	0.0017112879753112794	0		0.4586792907714844	-2.33540625	0		-1.0108444213867187	0.26798553466796876	0		-0.8275393676757813	-2.35377880859375	0		1.976619873046875	-0.5790576782226563	0		3.2835771484375	-0.25786029052734377	0		4.45455615234375	0.28757562255859376	0		5.98660009765625	0.5067339172363281	0		-0.20486802673339843	5.90292919921875	0		
-0.04603887939453125	-0.004480741977691651	0		0.4288804016113281	-2.33487646484375	0		-1.0835697021484374	0.2729247741699219	0		-0.8273397216796875	-2.3535029296875	0		1.9798798828125	-0.5748474731445312	0		3.277869140625	-0.2505866241455078	0		4.44179248046875	0.28789688110351563	0		5.9909111328125	0.5148799438476562	0		-0.21867237854003907	5.89032421875	0		
0.011192119598388672	-0.0017129759788513184	0		0.459050048828125	-2.334870849609375	0		-1.028416015625	0.2667267456054688	0		-0.8131968994140625	-2.3563330078125	0		1.9409610595703124	-0.587239013671875	0		3.300789306640625	-0.28155935668945314	0		4.44693017578125	0.28006884765625	0		6.00011572265625	0.513991943359375	0		-0.23534921264648437	5.893765625	0		
-0.03860179901123047	0.003043018102645874	0		0.43826165771484377	-2.325385986328125	0		-1.042216064453125	0.2701729431152344	0		-0.8039869384765626	-2.347099609375	0		1.9761630859375	-0.5822874145507813	0		3.284171142578125	-0.25715859985351563	0		4.4599658203125	0.2651796264648438	0		6.0004462890625	0.5311937255859375	0		-0.23607460021972657	5.89508056640625	0		
